<svg xmlns="http://www.w3.org/2000/svg" viewBox="0 0 1000 1000"><path d="M950.5 742.8l-358.6-.3 4.6 67.4c1.2 28.6 14.6 48.6 39.5 61.9 10.1 5.4 19.8 11.6 29.5 17.7 2.9 1.8 6 3.9 8 6.6 5.5 7.6 1.9 14.6-7.6 14.8-14.7.3-29.3.1-44 .1-94.4 0-188.8 0-283.2-.1-5.5 0-12.5 1.7-14.4-5.8-1.8-7.3 3.2-11.8 9-15.2l37.7-22.6c19.3-11.8 29.9-29 31.6-51.6l5.5-73.1H46.5c-25.4 0-36.6-11.2-36.6-36.8V124.4c0-23 11.8-35.1 34.5-35.1l906-.3c18.8 0 32 5.8 39.5 23.2v607.4c-7.4 17.3-20.6 23.3-39.4 23.2zm-7.1-586.5H56.5v514.3h886.9V156.3zM117.2 520.2v-34.4c-.1-8.6 3.7-13.2 12.5-13.2h39.1c8.8-.1 12.8 4.6 12.9 13v70.6c0 8.5-4.2 12.9-13 12.8-12.7-.1-25.5.1-38.2-.1-9.5-.1-13.1-3.9-13.2-13.5l-.1-35.2zm185.7-16.3v-49.7c.1-10.2 3.5-13.6 13.8-13.7H354c9.6.1 13.4 3.6 13.4 13.3V556c0 8.4-4.2 13-13 12.9-12.7-.1-25.5.1-38.2-.1-9.5-.1-13.2-3.9-13.3-13.4v-51.5zm-28.6-15.4v65.9c0 11.1-3.2 14.3-14.1 14.5h-36.3c-9.9-.1-13.6-3.3-13.7-12.9V421.2c0-9.7 3.7-12.9 13.6-13h37.3c9.6.1 13.1 3.7 13.1 13.4l.1 66.9zm573-175.4l-120.8 90.5V248.5c36.6-3.6 99.4 29.7 120.8 64.6zM395.9 473.3V392c0-13.2 3.1-16.1 16.4-16.2h33.5c10.3.1 14.1 3.6 14.1 13.5v166.4c0 9.5-3.8 13-13.5 13.2-12.4.2-24.9.1-37.3 0-9.5-.1-13.1-3.6-13.2-13.4v-82.2zm-61.5-101.5l90.8-103.1c-13.8 0-25.1-.2-36.4.1-7.6.2-13.5-1.9-14.2-10.5-.6-6.9 5-10.9 14.7-10.9h56.4c11 .1 14.3 3.2 14.3 14.2l.1 58.3c.1 7.5-2.9 13-10.6 13s-10.9-5.3-10.8-12.9v-33.8L427.9 298 347 389.8c-8.5 9.6-12.2 9.9-22.4 1.8l-82-65.5c-2.6 2.3-5.2 4.4-7.7 6.8l-93.3 87.8c-2.3 2.2-4.5 4.5-7.1 6.4-5.1 3.7-11.2 3.8-14.2-1.5-2-3.5-1-9.2-.1-13.7.5-2.3 3.8-4.1 5.9-6.1l104.4-98.3c9.3-8.7 12.1-8.8 22-.9l73.2 58.5 8.7 6.7zM814.3 549l-80.5-124.7 125-93.6C901 393.8 888 497.5 814.3 549zM704.8 260.3v91.5l.2 57.4c.1 4.8 1.5 10.1 4.1 14.1L780.9 535l8.7 13.5c-42.6 27.1-111.8 30.2-165.4-8.6-54.5-39.4-77.6-108.7-57.4-172.2 19.4-61.3 77.2-106.6 138-107.4z"/></svg>