<svg xmlns="http://www.w3.org/2000/svg" viewBox="0 0 512 512"><path d="M504.5 171.95l-36.2-36.4c-10-10.05-26.2-10.05-36.2 0L192 377.02 79.9 264.28c-10-10.06-26.2-10.06-36.2 0L7.5 300.7c-10 10.05-10 26.36 0 36.4l166.4 167.36c10 10.06 26.2 10.06 36.2 0l294.4-296.1c10-10.06 10-26.36 0-36.42zM166.57 282.7c6.84 7.02 18.18 7.02 25.2.18L403.85 72.62c7.02-6.84 7.02-18.18.18-25.2L362.08 5.3c-6.84-7.02-18.18-7.02-25.2-.18L179.7 161.2l-68.23-68.77c-6.84-7.02-18.18-7.02-25.2-.18L44.15 134c-7.02 6.84-7.02 18.18-.18 25.2l122.6 123.5z"/></svg>