<svg xmlns="http://www.w3.org/2000/svg" xmlns:xlink="http://www.w3.org/1999/xlink" viewBox="0 0 100 100"><g fill="#292929"><path d="M53.4 82.28h3.06v-20.3c0-6.54-5.38-10.88-15.98-12.92l-.4-.08v-.94l.27-.14c4.23-2.25 6.75-6.6 6.75-11.66v-4.68c0-7.54-5.7-13.23-13.23-13.23-7.57 0-13.26 5.7-13.26 13.23v4.68c0 5.06 2.52 9.42 6.75 11.66l.27.14v.94l-.4.08c-10.6 2.03-15.98 6.38-15.98 12.92v20.3h3.06v-20.3c0-2.27 1-4.23 3-5.83l.4-.33v.02c2.53-1.85 6.47-3.2 11.72-4.05.75-.12 1.3-.76 1.3-1.5v-3.23c0-.63-.38-1.18-.96-1.42-3.74-1.52-6.06-5.12-6.06-9.4v-4.68c0-5.88 4.27-10.16 10.15-10.17C39.72 21.4 44 25.66 44 31.55v4.68c0 4.28-2.32 7.88-6.06 9.4-.56.24-.93.8-.93 1.42v3.23a1.52 1.52 0 0 0 1.29 1.51c5.25.84 9.2 2.2 11.72 4.05l.01-.01.4.32c1.98 1.6 2.98 3.56 2.98 5.83zm32.86-52.1H67.3a1.35 1.35 0 0 1-1.35-1.35V9.85A1.35 1.35 0 0 1 67.3 8.5h18.97a1.35 1.35 0 0 1 1.35 1.35v18.97c0 .75-.6 1.36-1.35 1.36zm-17.62-2.7H84.9V11.2H68.64z"/><use xlink:href="#B"/><path d="M86.26 61.34H67.3a1.35 1.35 0 0 1-1.35-1.35V41.02a1.35 1.35 0 0 1 1.35-1.35h18.97a1.35 1.35 0 0 1 1.35 1.35V60a1.35 1.35 0 0 1-1.35 1.35zm-17.62-2.7H84.9V42.37H68.64z"/><use xlink:href="#B" y="31.15"/><path d="M86.26 92.5H67.3a1.35 1.35 0 0 1-1.35-1.35V72.18a1.35 1.35 0 0 1 1.35-1.35h18.97a1.35 1.35 0 0 1 1.35 1.35v18.97a1.35 1.35 0 0 1-1.35 1.35zm-17.62-2.7H84.9V73.53H68.64z"/><use xlink:href="#B" y="62.32"/></g><defs ><path id="B" d="M75.6 24.25c-.36 0-.7-.14-.96-.4l-3.56-3.56a1.36 1.36 0 0 1 0-1.92 1.36 1.36 0 0 1 1.92 0l2.5 2.5 4.98-5.97a1.36 1.36 0 0 1 1.91-.17 1.36 1.36 0 0 1 .17 1.91l-5.93 7.1c-.24.3-.6.47-.98.5h-.06z"/></defs></svg>