<svg xmlns="http://www.w3.org/2000/svg" viewBox="0 0 502.685 502.685"><path d="M482.797 276.924c4.53-5.824 6.73-13.33 4.724-20.988L428.05 30.52c-3.45-13.03-16.847-20.837-29.854-17.386L18.184 113.33C5.22 116.76-2.6 130.2.798 143.207L60.27 368.6c3.408 13.007 16.868 20.816 29.876 17.408l134.278-35.42v75.476c0 42.214 69.954 64.303 139.1 64.303 69.113 0 139.153-22.09 139.153-64.302V311.6c-.001-13.74-7.53-25.303-19.89-34.686zm-43.034-77.698l6.212 23.47-75.54 19.953-6.17-23.512 75.498-19.9zM395.93 50.733l11.8 44.695-118.014 31.148-11.8-44.695L395.93 50.733zm-52.956 174.01l6.04 22.95c-27.934 1.25-55.113 6.126-76.943 14.452l-4.616-17.43 75.52-19.974zm-262.99 94.48l-6.17-23.426 75.52-19.975 6.212 23.555-75.562 19.846zm90.64-48.987l75.476-19.953 5.716 21.506a95.81 95.81 0 0 0-5.242 3.473l-69.78 18.42-6.17-23.447zM477.49 424.21c0 24.612-50.993 44.544-113.958 44.544-62.9 0-113.937-19.953-113.937-44.544V396.49c0-.928.54-1.77.7-2.653 3.602 23.34 52.654 41.847 113.247 41.847 60.614 0 109.687-18.508 113.268-41.847.15.884.7 1.726.7 2.653v27.718zm0-54.53c0 24.59-50.993 44.522-113.958 44.522-62.9 0-113.937-19.93-113.937-44.522V341.96c0-.906.54-1.77.7-2.653 3.602 23.318 52.654 41.87 113.247 41.87 60.614 0 109.687-18.55 113.268-41.87.15.884.7 1.747.7 2.653v27.718zM363.532 356.1c-62.9 0-113.937-19.93-113.937-44.5s51.036-44.5 113.937-44.5c62.965 0 113.958 19.93 113.958 44.5s-50.993 44.5-113.958 44.5z" fill="#010002"/></svg>