<svg xmlns="http://www.w3.org/2000/svg" viewBox="0 0 588.161 588.161"><path d="M57.036 330.272c2.35 2.48 5.883 3.904 9.702 3.904 2.787 0 5.533-.763 7.82-2.146.298.033.6.062.926.062H180.1c3.647 0 6.842-1.273 9.458-3.9l.388-.403c2.407-2.396 3.676-5.586 3.676-9.233V226.7c0-5.25-2.5-8.393-4.667-10.13-1.738-2.18-4.875-4.667-10.13-4.667H69.1c-4.35 0-8.062 1.787-10.45 5.022-2.554 3.472-3.346 8.286-2.097 12.652-.135 30.592-1.032 61.343-2.668 91.4-.2 3.7.885 6.9 3.14 9.293zm24.676-25.23c.996-22.036 1.607-44.255 1.815-66.092h83.06v66.092H81.712zm106.504 21.633zm-22.73-127.815c2.35 2.477 5.883 3.9 9.702 3.9 2.787 0 5.532-.76 7.825-2.146.298.033.604.06.926.06h104.624c3.647 0 6.837-1.273 9.5-3.917l.35-.375c2.407-2.395 3.68-5.585 3.68-9.233V95.285c0-5.255-2.5-8.393-4.672-10.127-1.738-2.18-4.875-4.67-10.126-4.67H177.56c-4.35 0-8.062 1.787-10.444 5.022-2.554 3.468-3.35 8.287-2.102 12.652-.134 30.628-1.032 61.383-2.668 91.404-.2 3.7.885 6.912 3.142 9.294zm24.676-25.234c.996-21.98 1.607-44.2 1.815-66.092h83.06v66.092h-84.876zm128.605-37.692c2.35 2.477 5.888 3.9 9.706 3.9 2.787 0 5.533-.76 7.82-2.146a7.41 7.41 0 0 0 .927.065h104.623c3.647 0 6.843-1.272 9.082-3.54.118-.098.23-.204.408-.38l.35-.372c2.407-2.395 3.68-5.585 3.68-9.233V32.363c0-5.255-2.5-8.397-4.672-10.13-1.738-2.18-4.876-4.67-10.127-4.67H330.84c-4.35 0-8.062 1.787-10.445 5.022-2.554 3.472-3.35 8.287-2.102 12.652-.134 30.633-1.032 61.388-2.668 91.404-.2 3.7.886 6.912 3.142 9.295zm24.675-25.23c.996-21.98 1.607-44.194 1.815-66.096h83.06v66.096h-84.876zM313.24 211.748c1.412 1.5 3.517 2.342 5.777 2.342 1.52 0 3.023-.388 4.312-1.102l.26.008h54.66c2.17 0 4.08-.763 5.517-2.208l-1.444-1.44 1.762 1.122c1.444-1.44 2.208-3.346 2.208-5.516v-48c0-2.432-.963-4.54-2.722-6-1.444-1.754-3.558-2.717-5.98-2.717h-57.332c-2.6 0-4.8 1.073-6.246 3.023-1.48 2.012-1.963 4.786-1.285 7.312a959.99 959.99 0 0 1-1.392 47.573c-.118 2.2.538 4.137 1.905 5.58zm14.618-14.827c.48-10.873.78-21.816.894-32.583h41.46v32.583h-42.355zm-247.325-8.396c1.412 1.5 3.517 2.342 5.777 2.342a8.93 8.93 0 0 0 4.309-1.102l.26.008h54.664c2.17 0 4.076-.763 5.516-2.208l-1.444-1.44 1.763 1.122c1.444-1.436 2.2-3.34 2.2-5.516v-47.985c0-2.432-.963-4.545-2.72-6-1.444-1.754-3.558-2.717-5.98-2.717h-57.34c-2.6 0-4.8 1.073-6.242 3.023-1.48 2-1.963 4.786-1.286 7.3-.073 15.95-.542 31.955-1.4 47.573-.124 2.208.537 4.137 1.904 5.578zm14.618-14.823a975.21 975.21 0 0 0 .894-32.583h41.46v32.583H95.15zM232.084 63.5c1.412 1.5 3.517 2.346 5.777 2.346a8.93 8.93 0 0 0 4.309-1.102l.26.008h54.66c2.17 0 4.08-.767 5.516-2.2l-1.444-1.436 1.763 1.122c1.444-1.44 2.207-3.34 2.207-5.516V8.707c0-2.428-.963-4.537-2.72-5.985C300.967.963 298.854 0 296.426 0h-57.328c-2.6 0-4.8 1.073-6.243 3.023-1.48 2.012-1.962 4.786-1.285 7.312a963.73 963.73 0 0 1-1.39 47.577c-.122 2.207.54 4.133 1.905 5.577zm14.62-14.827a975.29 975.29 0 0 0 .894-32.583h41.457v32.583h-42.35zm-81.51 23.2c1.134 1.2 2.82 1.885 4.623 1.885 1.15 0 2.3-.277 3.28-.795h40.03c1.738 0 3.268-.612 4.305-1.665l.35-.343c1.16-1.16 1.775-2.7 1.775-4.418V31.42c0-1.926-.763-3.607-2.15-4.766-1.16-1.387-2.84-2.146-4.762-2.146h-41.922c-2.073 0-3.852.865-5 2.436-1.167 1.587-1.554 3.758-1.044 5.745a701.9 701.9 0 0 1-1.016 34.68c-.1 1.767.435 3.317 1.54 4.484zm11.657-11.767c.33-7.573.54-15.202.624-22.726h29.22v22.726H176.85zm334.522 42.374h-41.918c-2.072 0-3.852.865-5.006 2.432-1.17 1.587-1.56 3.762-1.05 5.745a700.25 700.25 0 0 1-1.016 34.688c-.098 1.767.437 3.313 1.542 4.484 1.135 1.2 2.82 1.9 4.623 1.9 1.146 0 2.284-.277 3.27-.795h40.037c1.738 0 3.272-.616 4.174-1.57l.478-.437c1.163-1.154 1.78-2.685 1.78-4.418v-35.096c0-1.926-.764-3.6-2.15-4.766-1.162-1.396-2.843-2.155-4.765-2.155zm-5.94 12.852v22.73h-29.845c.33-7.573.538-15.202.624-22.73h29.22zM487.87 378.18c3.6-2.38 5.594-6.206 5.594-10.812v-88.6h27.304c3.647 0 6.842-1.273 9.082-3.54a6.57 6.57 0 0 0 .408-.38l.354-.37c2.407-2.395 3.677-5.585 3.677-9.233v-91.86c0-5.255-2.5-8.396-4.672-10.13-1.738-2.18-4.876-4.668-10.127-4.668H409.764c-4.35 0-8.062 1.787-10.448 5.022-2.555 3.468-3.35 8.287-2.102 12.652-.135 30.633-1.032 61.384-2.668 91.4-.2 3.697.885 6.908 3.142 9.3 2.35 2.477 5.887 3.9 9.706 3.9 2.786 0 5.532-.76 7.825-2.146.298.037.6.065.922.065h50.27v79.393l-80.128 19.58v-26.78h35.896c2.175 0 4.08-.767 5.52-2.2l-1.448-1.437 1.763 1.122c1.444-1.44 2.207-3.346 2.207-5.516v-47.997c0-2.424-.963-4.538-2.72-5.986-1.444-1.758-3.558-2.72-5.985-2.72h-57.32c-2.6 0-4.8 1.073-6.242 3.02-1.485 2.016-1.967 4.794-1.285 7.32a957.48 957.48 0 0 1-1.392 47.572c-.122 2.208.54 4.138 1.905 5.577.58.612 1.294 1.082 2.068 1.465v54.358h-63.864v-59.4H329.6c3.647 0 6.838-1.273 9.082-3.538a6.5 6.5 0 0 0 .408-.379l.354-.376c2.407-2.395 3.676-5.585 3.676-9.232v-91.86c0-5.25-2.488-8.393-4.67-10.126-1.738-2.18-4.88-4.672-10.13-4.672H218.6c-4.35 0-8.062 1.787-10.45 5.022-2.554 3.472-3.35 8.287-2.1 12.652-.135 30.628-1.032 61.383-2.668 91.404-.2 3.697.886 6.908 3.142 9.3 2.35 2.478 5.888 3.9 9.703 3.9.787 0 1.57-.078 2.342-.196v68.156c0 3.187.938 5.965 2.8 8.254 2.183 4.565 6.426 7.18 11.693 7.18h35.276v18.385l-23.562 18.123a10.67 10.67 0 0 0-2.46.45c-.706.062-1.432.184-2.2.375-21.036-8.213-42.028-17.132-62.42-26.536v-33.762h3.305c2.174 0 4.08-.768 5.516-2.212l-1.45-1.436 1.76 1.122c1.444-1.437 2.2-3.342 2.2-5.517v-48c0-2.427-.962-4.536-2.72-5.98-1.444-1.762-3.558-2.725-5.985-2.725h-57.324c-2.6 0-4.807 1.072-6.243 3.02-1.485 2.016-1.966 4.794-1.285 7.32a962.44 962.44 0 0 1-1.391 47.573c-.123 2.207.54 4.137 1.905 5.577 1.412 1.5 3.517 2.342 5.777 2.342 1.52 0 3.023-.388 4.312-1.102.085.004.17.01.257.01h24.313v41.98c0 2.473.608 4.766 1.7 6.598 1.155 2.628 3.228 4.655 6.16 6.03 22.914 10.723 46.98 21.04 71.56 30.678v81.094c0 8.63 6.802 13.15 13.52 13.15s13.52-4.517 13.52-13.15v-80.87l25.43-18.16c7.03-.372 12.843-6.402 12.843-13.5 0-.645-.07-1.27-.167-1.885.1-.624.167-1.256.167-1.946v-26.087h75.472c3.2 0 5.97-.935 8.258-2.8 4.57-2.18 7.182-6.422 7.182-11.7v-12.4c31.673-8.274 63.407-16.042 94.342-23.084 3.06-.692 5.493-2.173 7.24-4.4zm-65.5-126.468c.995-22.04 1.607-44.256 1.815-66.096h83.06v66.096H422.37zm-50.576 83.158a975.73 975.73 0 0 0 .894-32.583h41.46v32.583h-42.355zm-126.17 11.25h22.713v58.438h-22.713V346.12zm70.457-93.14v66.092H231.2c.996-22.036 1.607-44.255 1.815-66.092h83.057zM172.95 392.562h-3.435c-1.702-.66-3.52-1.024-5.35-1.024a14.82 14.82 0 0 0-5.35 1.024H130.6a977.83 977.83 0 0 0 .894-32.583h41.46l-.005 32.583z"/></svg>