<svg xmlns="http://www.w3.org/2000/svg" viewBox="0 0 1000 1000"><path d="M484.72 17.24l-6.9 6.9v84.6l7.57 7.57c5.57 5.34 9.57 7.57 14.7 7.57s9.35-2.23 14.7-7.57l7.57-7.57v-85.5l-6.46-6.46c-9.34-9.13-21.8-9.13-31.16.45zM177.02 152.4c-5.8 5.12-7.12 8.02-7.12 15.8 0 9.35.9 10.46 29.4 38.96 28.94 28.94 29.17 29.17 39.4 29.17 13.58 0 20.93-7.8 20.93-22.5 0-9.8-.67-10.7-24.94-35.85-13.8-14.03-27.83-26.94-31.17-28.72-9.58-4.9-18.7-3.78-26.5 3.12zm618.08-2.02c-3.56 2.23-17.37 15.14-30.5 28.72-23.38 23.82-24.05 24.94-24.05 34.73 0 14.7 7.35 22.5 20.93 22.5 10.24 0 10.46-.22 39.63-29.4 28.28-28.28 29.6-29.83 29.6-38.74 0-7.57-1.33-10.24-7.35-15.6-8.46-7.56-18.48-8.45-28.27-2.22zm-342.9 69.25C341.55 243.67 261.85 331.4 250.7 441.6c-4.9 46.53 2.9 98.2 21.38 141.6 9.57 22.93 23.16 44.3 54.33 86.17 14.25 18.93 29.6 40.75 34.3 48.32 9.13 15.36 20.04 43.42 22.5 57.9l1.56 9.57H615.2l2.9-13.8c5.8-29.83 17.15-50.76 52.77-97.97 50.32-67.02 65.9-98.63 75.26-152.3 5.12-29.17 5.34-75.92.45-101.3-18.7-95.96-90.62-172.33-185.7-197.27-30.52-7.8-79.72-9.35-108.67-2.9zM56.56 456.97c-6.46 3.34-12.9 13.6-12.9 19.82 0 7.13 7.13 17.14 14.47 20.26 11.36 4.68 76.8 4.45 86.83-.22 17.14-8.24 17.14-31.84 0-40.08-10.24-4.67-79.48-4.67-88.4.22zm787.3 0c-14.25 6.9-16.92 23.82-5.34 35.18l6.68 6.9 45.64.67c50.32.67 55.88-.44 62.34-12.9 4.23-8.24 4.23-11.8 0-20.04-6.23-12.02-12.02-13.36-59.45-13.36-34.07 0-44.3.9-49.87 3.56zm-600.94 243.8c-6.9 4-65.68 62.56-69.24 69.24-8.9 17.14 4.9 35.62 24.27 32.06 5.8-1.1 15.14-9.13 42.3-36.52 30.28-30.5 34.96-36.3 34.96-42.3 0-18.25-17.6-30.5-32.3-22.48zm493.4.67c-6.9 3.8-11.13 11.8-11.35 21.15 0 6.9 3.34 11.13 34.96 42.97 27.16 27.38 36.5 35.4 42.3 36.52 19.37 3.56 33.17-14.92 24.27-32.06-3.78-7.13-62.8-65.68-69.7-69.24-6.47-3.13-13.8-2.9-20.5.66zM386.98 894.93l.67 65.46 6.46 9.13c4 5.8 10.47 11.36 17.6 14.92l11.35 5.57h154.08l11.36-5.57c7.13-3.56 13.58-9.13 17.6-14.92l6.46-9.13 1.34-130.7H386.3l.67 65.24z"/></svg>