<svg xmlns="http://www.w3.org/2000/svg" viewBox="0 0 297 297"><path d="M112.632 185.074l6.88-3.972c2.804-1.62 3.765-5.205 2.146-8l-13.036-22.58a5.86 5.86 0 0 0-5.083-2.933c-.995 0-2.003.253-2.926.787l-6.88 3.972c-.945.545-1.947.794-2.923.794-3.063 0-5.872-2.45-5.872-5.872v-7.944c0-3.238-2.625-5.864-5.864-5.864H53c-3.238 0-5.864 2.625-5.864 5.864v7.944c0 3.423-2.8 5.872-5.872 5.872-.976 0-1.978-.25-2.923-.794l-6.88-3.972a5.85 5.85 0 0 0-2.926-.787 5.86 5.86 0 0 0-5.083 2.933l-13.036 22.58a5.85 5.85 0 0 0 2.146 8l6.88 3.972c3.9 2.257 3.9 7.9 0 10.156l-6.88 3.972c-2.805 1.62-3.765 5.205-2.146 8l13.036 22.58a5.86 5.86 0 0 0 5.083 2.933c.995 0 2.003-.254 2.926-.787l6.88-3.972c.945-.545 1.947-.794 2.923-.794 3.063 0 5.872 2.45 5.872 5.872v7.944c0 3.238 2.625 5.864 5.864 5.864h26.072c3.238 0 5.864-2.625 5.864-5.864v-7.944c0-3.423 2.8-5.872 5.872-5.872.976 0 1.978.25 2.923.794l6.88 3.972a5.84 5.84 0 0 0 2.926.787 5.86 5.86 0 0 0 5.083-2.933l13.036-22.58a5.85 5.85 0 0 0-2.146-8l-6.88-3.972c-3.908-2.257-3.908-7.9.001-10.156zm-46.594 22.474a17.4 17.4 0 0 1-17.396-17.396 17.4 17.4 0 0 1 17.396-17.396 17.4 17.4 0 0 1 17.396 17.396 17.4 17.4 0 0 1-17.396 17.396zM108.1 23.66a8.06 8.06 0 0 0-11.39 0c-3.147 3.144-3.145 8.244 0 11.4l14.4 14.4c-52.9 2.62-95.7 44.162-100.334 96.506l1.2-2.062c3.406-5.9 9.756-9.565 16.57-9.564.144 0 .287.013.43.017 9.074-37.72 41.965-66.25 81.815-68.73l-14.08 14.06c-3.145 3.145-3.145 8.244 0 11.4a8.03 8.03 0 0 0 11.388 0l28.004-28.004c1.5-1.5 2.358-3.56 2.358-5.694a8.05 8.05 0 0 0-2.358-5.694L108.1 23.66zm101.758 41.197c17.88 0 32.428-14.547 32.428-32.428S227.75 0 209.868 0 177.44 14.547 177.44 32.428s14.547 32.43 32.428 32.43zm63.172 87.42v-44.58c0-12.34-7.93-23.283-19.657-27.124l-.054-.018-17.152-2.84c-1.46-.45-3.02.324-3.545 1.764l-19.462 53.4c-1.123 3.08-5.48 3.08-6.602 0l-19.462-53.4c-.424-1.163-1.522-1.892-2.698-1.892-.28 0-18 2.964-18 2.964-11.823 3.94-19.723 14.9-19.723 27.294v44.432a12.06 12.06 0 0 0 12.056 12.056h102.24a12.06 12.06 0 0 0 12.057-12.056zm14.33 10.657c-.673 9.215-8.233 14.858-17.45 15.526-7.062 40.425-41.207 71.64-82.98 74.237l14.06-14.06c3.145-3.146 3.145-8.244 0-11.4s-8.243-3.144-11.4 0l-28 28.004c-3.145 3.146-3.145 8.244 0 11.4l28.003 28.003a8.03 8.03 0 0 0 11.388 0c3.145-3.145 3.145-8.244 0-11.4l-14.4-14.4c56.028-2.774 100.758-49.227 100.758-105.93zm-70.434-85.828c-.747-.814-1.84-1.224-2.946-1.224h-8.245c-1.105 0-2.198.4-2.946 1.224-1.157 1.26-1.325 3.082-.504 4.505l4.407 6.644-2.063 17.405 4.063 10.808c.396 1.087 1.933 1.087 2.33 0l4.063-10.808-2.063-17.405 4.407-6.644c.822-1.423.654-3.244-.503-4.505z"/></svg>