<svg xmlns="http://www.w3.org/2000/svg" viewBox="0 0 1000 1000"><path d="M472.6 13.75c-35.6 13.2-50.8 44.6-48 99.2 1.8 36 10.6 58.8 29.4 75.6 12.8 11.6 26.2 16.2 46 16.2 22.6-.2 34.4-4.8 49.2-19.6 13.2-13.2 18.6-24.6 24-49.2 3.2-15.6 3.6-48.8.6-65.2-4.6-25.2-18.2-44-39.4-54.2-15.4-7.4-45.8-8.8-61.8-2.8zm-54.4 224.4c-35.2 18.8-57.2 33-65.2 42.2-11.4 13.4-12.8 22.2-13.2 74.6v50.4l.2 4.6h320v-50.6c0-57.2-1.4-65.2-13-78.8-3.8-4.6-12.6-11.8-19.6-16.2-12.8-8-67.8-38.4-69.6-38.4-.6 0-7.8 21.2-15.8 47-8.2 25.8-15.4 47-16 47s-4.8-10.8-9.2-23.8l-8.4-23.8 6.8-13.4c7.4-14.8 7.8-16.6 4.6-23.6-2.8-6.2-9.6-9.4-19.8-9.4s-17 3.2-19.8 9.4c-3.2 7-2.8 9 4.6 23.4l6.8 13-8.4 24c-4.4 13.4-8.8 24.2-9.4 24.2s-7.6-21.2-15.8-47-15.2-47-15.8-47-11.4 5.6-24 12.2zm59.8 254.8v39H225.98l-6.4 5.8-6.6 5.8-1.2 110.4h42.2v-80l491.02 1 .2 30 .6 40.4.2 10.6h42.2l-1.2-112.4-6.6-5.8-6.4-5.8H522v-78h-44v39zm277.8 199c-18.8 3.2-32.2 13.4-40.2 31-4.2 9-4.6 13-4.6 38 .2 24.6.8 29.4 4.8 39.8 9.6 24.2 27.4 36.4 52.2 36 25-.4 41.8-14 49.8-39.6 11.8-38.2 4.6-80.2-16.6-95.6-11.6-8.4-29.6-12.2-45.4-9.6zm-544.42 2.82c-24.8 9-38 38-34.2 76.2 4 42.6 22.8 65.2 54.6 65.8 36.4.6 55.6-23 57.8-70.4 1.6-38.4-7.4-58.8-30.4-69.6-11.8-5.6-35-6.4-47.8-2zm13.2 160.2c-5.6 2.4-6.6 3.8-6.6 9.4 0 3.6 2.2 10.2 4.6 14.6l4.8 8-6.2 17.4c-3.4 9.8-6.6 17.6-7.4 17.6-.6 0-6-15.2-11.8-34s-11.6-34-12.6-34c-3.4 0-47 24.4-57 32-5.4 4-11.4 10.8-13.8 16-4.4 8.2-4.6 11.4-4.6 48.4V990H354.4l-.8-40.6c-.6-38.4-.8-40.8-5.4-48.8-2.8-4.8-9.6-11.8-16-16.2-14-9.8-52.4-30.6-54.8-29.8-1 .2-6.6 15.6-12.4 34-5.8 18.6-11 34-11.4 34.6-.6.4-3.8-7.6-7.2-17.6L240 887l5-9.8c6-11.8 6.2-15.4 1.4-19.8-5.2-4.8-14.42-5.8-21.82-2.4zm533.42-.8c-9.4 3.8-10.4 10.4-3 24l4.8 9.2-6.8 18.8c-3.6 10.4-7.2 17.4-7.8 15.8-.4-1.6-5.6-17.6-11.2-35.6-5.6-17.8-11.2-32.4-12.2-32.4-2.8 0-39.8 20.4-53.4 29.4-6.4 4.4-12.6 10.6-16 16.4-5.4 9-5.4 9.8-6 49.6l-.6 40.6h240.22v-37.6c0-20.6-1-40.8-2.2-45.2-3.2-11.6-16-22.6-45-38.8-14.4-7.8-27-14.4-28.2-14.4-1.8 0-7.2 15.2-19.8 56.4-2 6.4-4.2 11.6-4.8 11.6-.8 0-4-8-7.4-17.6l-6.2-17.6 4.8-8c7.6-12.4 6.2-20.8-3.8-24.6-6.82-2.6-8.82-2.6-15.42 0z"/></svg>