<svg xmlns="http://www.w3.org/2000/svg" viewBox="0 0 480.001 480.001"><path d="M472 0H112a8 8 0 0 0-8 8v120h16V16h344v440c.077 4.207-3.17 7.73-7.368 8-.688 0-1.376-.056-2.064-.072-1.416-.04-2.832-.072-4.224-.216-.12 0-.232 0-.352-.048-26.128-2.856-46.767-23.475-49.648-49.6 0-.112-.04-.232-.056-.344-.194-1.9-.3-3.8-.288-5.72v-16a8 8 0 0 0-8-8H120V240h-16v144H40a8 8 0 0 0-8 8v16c.044 39.746 32.254 71.956 72 72h352.8c12.982-.34 23.3-11.014 23.2-24V8a8 8 0 0 0-8-8zM104 464c-30.913-.035-55.965-25.087-56-56v-8h336v8c.01 2.638.163 5.274.456 7.896.072.696.208 1.368.304 2.056.264 1.936.584 3.864 1.008 5.76.144.664.328 1.32.496 1.984a72.76 72.76 0 0 0 1.68 5.696l.576 1.6c.728 1.984 1.552 3.92 2.456 5.832.192.392.368.8.56 1.16 1.003 2.027 2.104 3.997 3.304 5.912.16.256.304.52.464.8a71.83 71.83 0 0 0 4.216 5.92l.256.344a73.74 73.74 0 0 0 5.6 6.264c1.723 1.707 3.5 3.307 5.36 4.8L104 464zm160-240a8 8 0 0 0 5.656-2.344l32-32a8 8 0 0 0 0-11.312l-32-32A8 8 0 0 0 264 144H40c-22.1 0-40 17.9-40 40s17.9 40 40 40h224zm-2.064-62.752L284.688 184l-22.752 22.752L256.248 184l5.688-22.752zM64 160h181.76l-4 16H80v16h161.76l4 16H64v-48zm-48 24c0-13.255 10.745-24 24-24h8v48h-8c-13.255 0-24-10.745-24-24z"/><path d="M184 344h240a8 8 0 0 0 8-8V96a8 8 0 0 0-13.656-5.656l-240 240A8 8 0 0 0 184 344zm232-228.688V136h-16v16h16v16h-16v16h16v16h-16v16h16v16h-16v16h16v16h-16v16h16v16h-16v16h16v16h-16v-16h-16v16h-16v-16h-16v16h-16v-16h-16v16h-16v-16h-16v16h-16v-16h-16v16h-16v-16h-16v16h-20.688L416 115.312zM299.88 296H376a8 8 0 0 0 8-8v-76.12a8 8 0 0 0-13.656-5.656l-76.12 76.12A8 8 0 0 0 299.88 296zM368 231.2V280h-48.8l48.8-48.8zM208 48h160v16H208zm-24 32h208v16H184zm-48 168h48v16h-48zm0 32h32v16h-32z"/></svg>