<svg version="1.0" xmlns="http://www.w3.org/2000/svg" width="685.3" height="685.3" viewBox="0 0 514 514"><path d="M76 2l-2 1c-1-1-2 0-3 1l-3 1c-2-1-3 0-3 1l-3 1h-1v1l-3 1-2 1-1 1h-2l-1 1c0 1-10 11-12 11-1 0-2 1-2 3l-2 6-3 4-1 2-1 3v2l-1 2v4l-1 1v1a11410 11410 0 002 316l1 3 1 2 1 2c2 1 5 8 4 9h1l4 3 5 5 3 4 2 2h2l1 1 2 1 3 2h1l3 1c0 1 1 2 3 1l3 1c0 2 1 2 3 2l2 1 52 1 53 1 2 3 2 4 3 4 3 2 3 4 3 4 1 2 2 3 3 4c2 1 3 3 2 4l3 3 3 3 2 3 3 4s0 2 2 3l2 3 3 4 2 4 1 2c1-1 5 3 4 5l3 3 3 3 2 3 3 4 2 3 2 4 2 3c2 0 4 3 3 4l2 3 4 2c0 2 1 2 2 1l2-2c-1-1 2-5 4-5l1-1c-1-1 2-6 4-6l1-1c-1-1 1-5 6-10l4-5 2-3 3-3c0-2 2-5 4-5l1-1c-1-1 3-7 4-6l1-1c-1-1 1-5 6-10l4-5c0-2 2-4 4-4l1-1c-1-1 3-8 8-13l1-2 3-4 2-3 3-3 3-4 1-2c2-2 7-2 54-2a567 567 0 0058-3c1-1 2-2 3-1l4-2c1-1 3-2 4-1l1-1 1-1 5-4 5-4c1 1 4-2 5-5l2-4 3-4 2-3v-2l1-2 2-2c-1-1 0-2 1-3l1-3c-1-1 0-2 1-3a11004 11004 0 010-314c-1 0-2-1-1-2l-1-2c-1-1-2-2-1-3l-2-3-1-1v-2l-2-3-4-6-3-5-6-5-4-3-3-2-1-1-1-1c-1 1-3 0-4-1-1-2-2-2-4-2h-5l-3-2-182-1L75 2zm194 74h1l2 1h1l2 1h1l2 1h1c4 1 12 7 18 13 7 7 14 17 15 21v3l1 1v1l1 2v5l1 3v14l-1 4v3l-1 1v2l-1 2v3c-2 10-24 32-33 33l-2 1h-1l-1 1h-2l-2 1h-1l-2 1h-5l-4 1h-7l-4-1h-6l-2-1-2-1h-1l-2-1h-1l-2-1-6-2c-7-4-19-17-24-25l-2-6-1-2v-1l-1-1v-3l-1-1v-27l1-2v-2l1-2v-1l1-2c1-10 23-32 32-34h2l1-1h2l1-1h3l1-1h27zm0 138l4 1h3l2 1h3l2 1h2l2 1h2l1 1h3l2 1h1l2 1 1 1 5 1 5 3 19 12a127 127 0 0136 45l1 4 2 3v2l1 2v1l1 2v1l1 1v2l1 2 1 2v5l1 2v6l1 8v6H258a2506 2506 0 00-120 1v-14l1-4v-3l1-2v-3l1-3v-3l1-1 1-3v-3l1-1v-2l1-2 1-3c-1 0 5-11 11-19a122 122 0 0165-48l1-1h2l2-1h2l2-1h2l3-1h4l3-1c1-1 25 0 27 1z"/></svg>