<svg xmlns="http://www.w3.org/2000/svg" viewBox="0 0 475.264 475.264">
  <path d="M463.716 170.835a7.5 7.5 0 0 0-3.75-6.495L177.107 1.005a7.499 7.499 0 0 0-7.5 0L66.727 60.403l.004.007a7.493 7.493 0 0 0-3.46 4.408l-51.43 178.157a7.504 7.504 0 0 0-.294 2.08v59.386a7.5 7.5 0 0 0 3.75 6.495l282.882 163.322a7.493 7.493 0 0 0 7.5 0h.002l154.285-89.08a7.502 7.502 0 0 0 3.75-6.495V170.835zM31.409 243.533l123.345-119.317 189.77 109.564-47.163 163.3L31.409 243.533zm121.048-137.964l-66.98-38.671 80.38-46.408v72.116l-13.4 12.963zm22.048-.459l190.276 109.855-11.423 6.595-187.391-108.191 8.538-8.259zm185.22 130.095l20.056-11.579 64.074 36.993-126.933 122.787 42.803-148.201zm35.056-20.24l53.935-31.139v62.279l-53.935-31.14zm-15-8.66L180.857 91.456V20.491l260.36 150.344-61.436 35.47zM75.025 78.185l66.219 38.231L34.057 220.101 75.025 78.185zM26.547 300.112v-42.066l267.862 154.65.015 42.074L26.547 300.112zm282.877 154.664l-.016-43.231 139.308-134.759v97.568l-139.292 80.422z"/>
</svg>
