<svg xmlns="http://www.w3.org/2000/svg" viewBox="0 0 1000 1000"><path d="M790.7 791c-178.4 178.4-468.6 178.4-646.9 0-178.4-178.3-178.4-468.5 0-646.9s468.6-178.4 646.9 0 178.3 468.6 0 646.9zM737 737.4c150.1-150.1 150.1-394.3 0-544.4s-394.3-150.1-544.4 0-150.1 394.3 0 544.4 394.3 150.1 544.4 0zM670.3 584c-31.1-24.2-120.8-64.4-120.8-64.4l-58.2 107-8.6-25.5 15.9-32.2-31.9-32.2-31.9 32.2 16 32.2-10.3 26.1L384 519.6s-89.7 40.2-120.8 64.4-44.8 97.7-44.8 97.7h497.7s-9.1-69.2-45.8-97.7zm-200.6-73.6c73.1-.1 121.8-97.3 121.8-149.6s-.2-145.3-121.8-145.3-121.8 93-121.8 145.3c.1 52.3 48.8 149.7 121.8 149.6z"/><path d="M976.7 973c-19 20.8-51.2 22.3-72 3.3L743.4 829.1c-20.8-19-22.3-51.2-3.3-72s51.2-22.3 72-3.3L973.4 901c20.8 19 22.3 51.2 3.3 72z"/></svg>