<svg xmlns="http://www.w3.org/2000/svg" viewBox="0 0 198.145 198.145"><path d="M195.536 68.18c-1.895-2.08-4.578-3.265-7.392-3.265H10c-2.813 0-5.497 1.186-7.392 3.265a10 10 0 0 0-2.565 7.662l9.505 102.1a10 10 0 0 0 9.957 9.073H178.64a10 10 0 0 0 9.957-9.073l9.505-102.1a10 10 0 0 0-2.565-7.662zm-63.1 97.893H65.74c-5.523 0-10-4.478-10-10 0-13.58 11.048-24.628 24.628-24.628h7.177c-7.38-4.078-12.393-11.94-12.393-20.952 0-13.2 10.73-23.922 23.922-23.922s23.922 10.73 23.922 23.922c0 9.012-5.012 16.874-12.393 20.952h7.177c13.303 0 24.176 10.603 24.614 23.802.022.272.034.548.034.826-.001 5.523-4.478 10-10 10zm46.48-119.775a7.5 7.5 0 0 1-7.5 7.5H26.74a7.5 7.5 0 1 1 0-15h144.667a7.5 7.5 0 0 1 7.5 7.5zm-19.8-27.667a7.5 7.5 0 0 1-7.5 7.5H46.54a7.5 7.5 0 1 1 0-15h105.066a7.5 7.5 0 0 1 7.501 7.5z"/></svg>