<svg xmlns="http://www.w3.org/2000/svg" viewBox="0 0 131.46 127.98"><path d="M0,128V0H131.46V128Z" fill="none"/><path d="M103.6 100.72L90.27 80a37.14 37.14 0 1 0-12.63 7.71l13.54 21a7.39 7.39 0 0 0 6.22 3.39 7.3 7.3 0 0 0 4-1.18 7.4 7.4 0 0 0 2.21-10.2zm-68.18-48.1A29.55 29.55 0 1 1 65 82.2a29.6 29.6 0 0 1-29.57-29.57zm39.52 10.52a7.44 7.44 0 0 1-3.09-4.88 14 14 0 1 0-12.77 0A7.56 7.56 0 0 1 56 63.14c-4.27 2.7-8.4 4.18-9.93 7.13a26 26 0 0 0 38.42-.68c-1.5-2.26-5.3-3.75-9.55-6.45zm-51.7 11.34A5.41 5.41 0 0 1 21 71a10.08 10.08 0 1 0-9.18 0 5.4 5.4 0 0 1-2.22 3.48C6.54 76.4 1.75 77.4 1.4 84.4h30c-.33-7-5.1-8-8.18-9.92zm98.65 0a5.41 5.41 0 0 1-2.22-3.48 10.09 10.09 0 1 0-9.18 0 5.47 5.47 0 0 1-2.23 3.55c-3.07 1.93-7.85 2.92-8.2 9.92h30c-.32-7.07-5.1-8.06-8.17-10z"/></svg>
